<svg width="327" height="27" viewBox="0 0 327 27" fill="none" xmlns="http://www.w3.org/2000/svg">
<path d="M0 26.25V0H7.5V3.75H11.25V7.5H15V3.75H18.75V0H26.25V26.25H18.75V11.25H15V18.75H11.25V11.25H7.5V26.25H0ZM41.25 3.75V0H48.75V3.75H41.25ZM33.75 26.25V22.5H41.25V11.25H37.5V7.5H48.75V22.5H56.25V26.25H33.75ZM60 26.25V7.5H82.5V11.25H86.25V26.25H78.75V11.25H67.5V26.25H60ZM93.75 26.25V22.5H90V11.25H93.75V7.5H112.5V11.25H116.25V18.75H97.5V22.5H112.5V26.25H93.75ZM97.5 15H108.75V11.25H97.5V15ZM123.75 26.25V22.5H120V11.25H123.75V7.5H146.25V11.25H127.5V22.5H146.25V26.25H123.75ZM161.25 11.25H165V15H161.25V26.25H153.75V7.5H161.25V11.25ZM176.25 7.5V11.25H165V7.5H176.25ZM183.75 26.25V22.5H180V18.75H183.75V15H198.75V11.25H183.75V7.5H202.5V11.25H206.25V26.25H183.75ZM187.5 22.5H198.75V18.75H187.5V22.5ZM221.25 26.25V11.25H213.75V7.5H221.25V3.75H225V0H236.25V3.75H228.75V7.5H236.25V11.25H228.75V26.25H221.25ZM251.25 26.25V11.25H243.75V7.5H251.25V0H258.75V7.5H266.25V11.25H258.75V26.25H251.25ZM300 26.25V18.75H303.75V15H307.5V11.25H315V7.5H318.75V3.75H307.5V7.5H300V3.75H303.75V0H322.5V3.75H326.25V11.25H322.5V15H318.75V18.75H311.25V22.5H326.25V26.25H300Z" fill="white"/>
</svg>
